<mxfile host="Electron" modified="2023-12-03T07:41:43.924Z" agent="Mozilla/5.0 (Windows NT 10.0; Win64; x64) AppleWebKit/537.36 (KHTML, like Gecko) draw.io/21.2.8 Chrome/112.0.5615.165 Electron/24.2.0 Safari/537.36" etag="Qdn1I5p0FDoauYp_Bwnm" version="21.2.8" type="device">
  <diagram name="Page-1" id="XnzADeMt7MzlG9ctFfFO">
    <mxGraphModel dx="744" dy="697" grid="1" gridSize="10" guides="1" tooltips="1" connect="1" arrows="1" fold="1" page="1" pageScale="1" pageWidth="827" pageHeight="1169" math="0" shadow="0">
      <root>
        <mxCell id="0" />
        <mxCell id="1" parent="0" />
        <mxCell id="WkpC6kVZL-U_Vdv6IYgv-1" value="&lt;font style=&quot;font-size: 16px;&quot; face=&quot;Verdana&quot;&gt;&quot;Scanned&lt;br&gt;block&quot;&lt;br&gt;section&lt;/font&gt;" style="rounded=0;whiteSpace=wrap;html=1;align=center;fillColor=#8bdf86;strokeColor=#000000;" vertex="1" parent="1">
          <mxGeometry x="80" y="190" width="100" height="270" as="geometry" />
        </mxCell>
        <mxCell id="WkpC6kVZL-U_Vdv6IYgv-3" value="&lt;font style=&quot;font-size: 14px;&quot; face=&quot;Verdana&quot;&gt;&amp;nbsp; Data Block&lt;/font&gt;" style="rounded=0;whiteSpace=wrap;html=1;align=left;fillColor=#00CC00;strokeColor=#000000;" vertex="1" parent="1">
          <mxGeometry x="180" y="190" width="410" height="30" as="geometry" />
        </mxCell>
        <mxCell id="WkpC6kVZL-U_Vdv6IYgv-7" value="&lt;font style=&quot;font-size: 14px;&quot; face=&quot;Verdana&quot;&gt;&amp;nbsp; Leaf index block/ Bloom block&lt;/font&gt;" style="rounded=0;whiteSpace=wrap;html=1;align=left;fillColor=#d5e8d4;strokeColor=#000000;" vertex="1" parent="1">
          <mxGeometry x="180" y="250" width="410" height="30" as="geometry" />
        </mxCell>
        <mxCell id="WkpC6kVZL-U_Vdv6IYgv-14" value="&lt;font style=&quot;font-size: 14px;&quot; face=&quot;Verdana&quot;&gt;&amp;nbsp; ...&lt;/font&gt;" style="rounded=0;whiteSpace=wrap;html=1;align=left;fillColor=#009900;strokeColor=#000000;" vertex="1" parent="1">
          <mxGeometry x="180" y="220" width="410" height="30" as="geometry" />
        </mxCell>
        <mxCell id="WkpC6kVZL-U_Vdv6IYgv-17" value="&lt;font style=&quot;font-size: 14px;&quot; face=&quot;Verdana&quot;&gt;&amp;nbsp; Leaf index block/ Bloom block&lt;/font&gt;" style="rounded=0;whiteSpace=wrap;html=1;align=left;fillColor=#d5e8d4;strokeColor=#000000;" vertex="1" parent="1">
          <mxGeometry x="180" y="370" width="410" height="30" as="geometry" />
        </mxCell>
        <mxCell id="WkpC6kVZL-U_Vdv6IYgv-18" value="&lt;font style=&quot;font-size: 14px;&quot; face=&quot;Verdana&quot;&gt;&amp;nbsp; Data Block&lt;/font&gt;" style="rounded=0;whiteSpace=wrap;html=1;align=left;fillColor=#00CC00;strokeColor=#000000;" vertex="1" parent="1">
          <mxGeometry x="180" y="310" width="410" height="30" as="geometry" />
        </mxCell>
        <mxCell id="WkpC6kVZL-U_Vdv6IYgv-19" value="&lt;font style=&quot;font-size: 14px;&quot; face=&quot;Verdana&quot;&gt;&amp;nbsp; Data Block&lt;/font&gt;" style="rounded=0;whiteSpace=wrap;html=1;align=left;fillColor=#00CC00;strokeColor=#000000;" vertex="1" parent="1">
          <mxGeometry x="180" y="430" width="410" height="30" as="geometry" />
        </mxCell>
        <mxCell id="WkpC6kVZL-U_Vdv6IYgv-24" value="&lt;font style=&quot;font-size: 16px;&quot; face=&quot;Verdana&quot;&gt;&quot;Non-&lt;br&gt;scanned&lt;br&gt;block&quot;&lt;br&gt;section&lt;/font&gt;" style="rounded=0;whiteSpace=wrap;html=1;align=center;fillColor=#f8cecc;strokeColor=#000000;" vertex="1" parent="1">
          <mxGeometry x="80" y="460" width="100" height="100" as="geometry" />
        </mxCell>
        <mxCell id="WkpC6kVZL-U_Vdv6IYgv-25" value="&lt;span style=&quot;font-size: 14px;&quot;&gt;&lt;font style=&quot;&quot; face=&quot;Verdana&quot;&gt;&amp;nbsp; Meta&lt;br&gt;&amp;nbsp; block&lt;/font&gt;&lt;/span&gt;" style="rounded=0;whiteSpace=wrap;html=1;fillColor=#FF9999;strokeColor=#000000;align=left;" vertex="1" parent="1">
          <mxGeometry x="180" y="460" width="100" height="70" as="geometry" />
        </mxCell>
        <mxCell id="WkpC6kVZL-U_Vdv6IYgv-26" value="&lt;div style=&quot;&quot;&gt;&lt;b style=&quot;font-size: 14px; font-family: Verdana; background-color: initial;&quot;&gt;&amp;nbsp; &amp;nbsp;...&lt;/b&gt;&lt;/div&gt;" style="rounded=0;whiteSpace=wrap;html=1;fillColor=#FF9999;strokeColor=#000000;align=left;" vertex="1" parent="1">
          <mxGeometry x="280" y="460" width="100" height="70" as="geometry" />
        </mxCell>
        <mxCell id="WkpC6kVZL-U_Vdv6IYgv-27" value="&lt;span style=&quot;font-size: 14px;&quot;&gt;&lt;font style=&quot;&quot; face=&quot;Verdana&quot;&gt;&amp;nbsp; Meta block&lt;/font&gt;&lt;/span&gt;" style="rounded=0;whiteSpace=wrap;html=1;fillColor=#FF9999;strokeColor=#000000;align=left;" vertex="1" parent="1">
          <mxGeometry x="380" y="460" width="210" height="70" as="geometry" />
        </mxCell>
        <mxCell id="WkpC6kVZL-U_Vdv6IYgv-28" value="&lt;font style=&quot;font-size: 14px;&quot; face=&quot;Verdana&quot;&gt;&amp;nbsp; ...&lt;/font&gt;" style="rounded=0;whiteSpace=wrap;html=1;align=left;fillColor=#009900;strokeColor=#000000;" vertex="1" parent="1">
          <mxGeometry x="180" y="280" width="410" height="30" as="geometry" />
        </mxCell>
        <mxCell id="WkpC6kVZL-U_Vdv6IYgv-29" value="&lt;font style=&quot;font-size: 14px;&quot; face=&quot;Verdana&quot;&gt;&amp;nbsp; ...&lt;/font&gt;" style="rounded=0;whiteSpace=wrap;html=1;align=left;fillColor=#009900;strokeColor=#000000;" vertex="1" parent="1">
          <mxGeometry x="180" y="340" width="410" height="30" as="geometry" />
        </mxCell>
        <mxCell id="WkpC6kVZL-U_Vdv6IYgv-30" value="&lt;font style=&quot;font-size: 14px;&quot; face=&quot;Verdana&quot;&gt;&amp;nbsp; ...&lt;/font&gt;" style="rounded=0;whiteSpace=wrap;html=1;align=left;fillColor=#009900;strokeColor=#000000;" vertex="1" parent="1">
          <mxGeometry x="180" y="400" width="410" height="30" as="geometry" />
        </mxCell>
        <mxCell id="WkpC6kVZL-U_Vdv6IYgv-31" value="&lt;font face=&quot;Verdana&quot; style=&quot;font-size: 14px;&quot;&gt;&amp;nbsp; Intermediate Level Data Index Blocks(optional)&lt;/font&gt;" style="rounded=0;whiteSpace=wrap;html=1;align=left;fillColor=#FFCCCC;" vertex="1" parent="1">
          <mxGeometry x="180" y="530" width="410" height="30" as="geometry" />
        </mxCell>
        <mxCell id="WkpC6kVZL-U_Vdv6IYgv-32" value="&lt;font style=&quot;font-size: 16px;&quot; face=&quot;Verdana&quot;&gt;&quot;Load-on-&lt;br&gt;open&quot;&lt;br&gt;section&lt;/font&gt;" style="rounded=0;whiteSpace=wrap;html=1;align=center;fillColor=#e1d5e7;strokeColor=#000000;" vertex="1" parent="1">
          <mxGeometry x="80" y="560" width="100" height="120" as="geometry" />
        </mxCell>
        <mxCell id="WkpC6kVZL-U_Vdv6IYgv-33" value="&lt;font face=&quot;Verdana&quot; style=&quot;font-size: 14px;&quot;&gt;&amp;nbsp;Root Data Index&lt;/font&gt;" style="rounded=0;whiteSpace=wrap;html=1;align=left;fillColor=#CC99FF;strokeColor=#000000;" vertex="1" parent="1">
          <mxGeometry x="180" y="560" width="240" height="30" as="geometry" />
        </mxCell>
        <mxCell id="WkpC6kVZL-U_Vdv6IYgv-35" value="&lt;font face=&quot;Verdana&quot; style=&quot;font-size: 14px;&quot;&gt;&amp;nbsp; Fields for midkey&lt;/font&gt;" style="rounded=0;whiteSpace=wrap;html=1;align=left;fillColor=#CC99FF;" vertex="1" parent="1">
          <mxGeometry x="420" y="560" width="170" height="30" as="geometry" />
        </mxCell>
        <mxCell id="WkpC6kVZL-U_Vdv6IYgv-37" value="&lt;font face=&quot;Verdana&quot;&gt;&lt;span style=&quot;font-size: 14px;&quot;&gt;&amp;nbsp;Meta Index&lt;/span&gt;&lt;/font&gt;" style="rounded=0;whiteSpace=wrap;html=1;align=left;fillColor=#CC99FF;strokeColor=#000000;" vertex="1" parent="1">
          <mxGeometry x="180" y="590" width="410" height="30" as="geometry" />
        </mxCell>
        <mxCell id="WkpC6kVZL-U_Vdv6IYgv-38" value="&lt;font face=&quot;Verdana&quot;&gt;&lt;span style=&quot;font-size: 14px;&quot;&gt;&amp;nbsp;File Info&lt;/span&gt;&lt;/font&gt;" style="rounded=0;whiteSpace=wrap;html=1;align=left;fillColor=#66B2FF;strokeColor=#000000;" vertex="1" parent="1">
          <mxGeometry x="180" y="620" width="410" height="30" as="geometry" />
        </mxCell>
        <mxCell id="WkpC6kVZL-U_Vdv6IYgv-39" value="&lt;font face=&quot;Verdana&quot;&gt;&lt;span style=&quot;font-size: 14px;&quot;&gt;&amp;nbsp;Bloom filter metadata(interpreted by StoreFile)&lt;/span&gt;&lt;/font&gt;" style="rounded=0;whiteSpace=wrap;html=1;align=left;fillColor=#CC99FF;strokeColor=#000000;" vertex="1" parent="1">
          <mxGeometry x="180" y="650" width="410" height="30" as="geometry" />
        </mxCell>
        <mxCell id="WkpC6kVZL-U_Vdv6IYgv-40" value="&lt;font face=&quot;Verdana&quot;&gt;&lt;span style=&quot;font-size: 14px;&quot;&gt;&amp;nbsp;Trailer&lt;/span&gt;&lt;/font&gt;" style="rounded=0;whiteSpace=wrap;html=1;align=left;fillColor=#00CC66;strokeColor=#000000;" vertex="1" parent="1">
          <mxGeometry x="80" y="680" width="100" height="30" as="geometry" />
        </mxCell>
        <mxCell id="WkpC6kVZL-U_Vdv6IYgv-41" value="&lt;font face=&quot;Verdana&quot;&gt;&lt;span style=&quot;font-size: 14px;&quot;&gt;&amp;nbsp;Trailer fields&lt;/span&gt;&lt;/font&gt;" style="rounded=0;whiteSpace=wrap;html=1;align=left;fillColor=#00CC66;strokeColor=#000000;" vertex="1" parent="1">
          <mxGeometry x="180" y="680" width="180" height="30" as="geometry" />
        </mxCell>
        <mxCell id="WkpC6kVZL-U_Vdv6IYgv-42" value="&lt;font face=&quot;Verdana&quot;&gt;&lt;span style=&quot;font-size: 14px;&quot;&gt;&amp;nbsp; Version&lt;/span&gt;&lt;/font&gt;" style="rounded=0;whiteSpace=wrap;html=1;align=left;fillColor=#00CC66;strokeColor=#000000;" vertex="1" parent="1">
          <mxGeometry x="360" y="680" width="230" height="30" as="geometry" />
        </mxCell>
      </root>
    </mxGraphModel>
  </diagram>
</mxfile>
